<svg width="48" height="48" viewBox="0 0 12.7 12.7" xml:space="preserve" xmlns="http://www.w3.org/2000/svg" style="stroke:text-color;fill:text-color" class="logo">
  <g style="display:inline">
    <g>
      <path style="stroke:text-color;display:inline;stroke-width:.212479" d="m5.774 3.955.146-.101v4.945l-.144-.078Zm1.664 0-.146-.101v4.945l.145-.078Z" transform="matrix(1.03013 0 0 .84476 -.455 1.478)"/>
      <path style="stroke:text-color;display:inline;stroke-width:.210227" d="M4.32 7.006c.688-.554 1.461 0 1.461 0v1.72s-.778-.457-1.46.009zm4.572 0c-.688-.554-1.46 0-1.46 0l-.001 1.72s.779-.457 1.46.009z" transform="matrix(1.03013 0 0 .84476 -.455 1.478)"/>
    </g>
    <path style="display:inline;opacity:1;stroke-width:.00799999;stroke-linecap:round" d="M5.638 4.362c.69-.184.764-.179 1.434 0v1.493c-.653-.175-.746-.184-1.434 0Z" transform="translate(0 .375)"/>
    <g>
      <path style="display:inline;opacity:1;fill:text-color;fill-opacity:1;stroke:text-color;stroke-width:.00799999;stroke-linecap:round;stroke-dasharray:none;stroke-dashoffset:0;stroke-opacity:1" d="M2.552 4.772s.088.114.175.119c.057.003.61.181.61.181s-.556-.123-.714-.017c-.066.112-.071.146-.071.146zm7.652-.15s-.083.118-.17.126c-.057.005-.603.205-.603.205s.551-.145.713-.045c.07.11.077.143.077.143zm-7.421.995c.254.117.758-.036.947 0 0 0-.356.069-.504.2-.148.13-.088.156-.077.224.012.077-.156-.132-.156-.132Zm7.223-.141c-.249.127-.759-.006-.946.036 0 0 .358.055.511.18.153.126.095.153.086.222-.009.078.151-.138.151-.138zm-5.588.77c.09-.046.192-.131.274-.214l.268-.27c-.112.169-.092.146-.1.223-.014.13.07.171.092.214zm3.979-.078a1.2 1.2 0 0 1-.282-.203l-.279-.26c.12.165.098.143.11.22.018.129-.064.173-.084.217z" transform="rotate(1.12 -12.811 3.45)"/>
      <path style="display:inline;fill:text-color;fill-opacity:1;stroke:text-color;stroke-width:.209994;stroke-dasharray:none;stroke-dashoffset:0;stroke-opacity:1" d="M5.494 4.527s-.633.227-1.129.133c-.295-.057-.666-.164-.94-.477-.275-.314-.63-.738-.737-.708-.454.339-.516.824-.217 1.316 0 0-.078.35 0 .574.097.282.428.345.428.345.142-.044-.06.46.506.606.564.146.965-.003 1.218-.171.163-.109.108.18.36.1.544-.403.394-1.081.51-1.718Zm1.712 0s.633.227 1.129.133c.295-.057.666-.164.94-.477.275-.314.63-.738.737-.708.454.339.516.824.217 1.316 0 0 .078.35 0 .574-.097.282-.428.345-.428.345-.142-.044.06.46-.506.606-.564.146-.965-.003-1.218-.171-.163-.109-.108.18-.36.1-.544-.403-.394-1.081-.51-1.718Z" transform="translate(0 .375)"/>
    </g>
  </g>
</svg>
